<svg xmlns="http://www.w3.org/2000/svg" viewBox="0 0 64 64" width="64" height="64">
  <g stroke="#222222" stroke-width="2.2" stroke-linejoin="round" stroke-linecap="round">
    <circle cx="32" cy="32" r="30" fill="#1a1a1a"/><circle cx="32" cy="32" r="27" fill="#ffffff" stroke="#222222" stroke-width="1.8"/>
    <circle cx="20" cy="34" r="3" fill="#e0b083"/><circle cx="44" cy="34" r="3" fill="#e0b083"/>
    <path d="M32 20 Q22 22 22 32 Q22 50 32 50 Q42 50 42 32 Q42 22 32 20 Z" fill="#e0b083"/>
    <path d="M28 44 Q32 48 36 44 L32 56 Z" fill="#50281b"/>
    <circle cx="26" cy="33" r="2.2" fill="#222222"/><circle cx="38" cy="33" r="2.2" fill="#222222"/>
    <path d="M30 43 L34 43" fill="none"/>
    <path d="M22 16 Q32 10 42 16 L40 22 Q32 19 24 22 Z" fill="#50281b"/><path d="M41 18 Q49 24 45 32 L42 28 Q42 22 41 18 Z" fill="#50281b"/>
    <rect x="20" y="32" width="24" height="3" fill="#882222"/>
  </g>
</svg>
