<svg xmlns="http://www.w3.org/2000/svg" viewBox="0 0 64 64" width="64" height="64"><circle cx="32" cy="32" r="29" fill="#2d4668" stroke="#222222" stroke-width="4.0"/><g stroke="#222222" stroke-width="2.2" stroke-linejoin="round" stroke-linecap="round">
  <path d="M20 26 Q20 16 32 16 Q44 16 44 26 L44 24 Q32 18 20 24 Z" fill="#8c2f2f"/>
  <path d="M20 24 Q32 18 44 24 L46 28 L42 27 Q32 22 22 27 L18 28 Z" fill="#8c2f2f"/>
  <path d="M44 26 L49 31 L45 32 Z" fill="#8c2f2f"/>
  <ellipse cx="32" cy="33" rx="11" ry="11" fill="#e0b083"/>
  <circle cx="27.5" cy="31" r="1.9" fill="#222222"/>
  <path d="M34 28 L40 28 L40 33 L34 33 Z" fill="#222222"/>
  <path d="M40 29 L45 26" fill="none" stroke="#222222" stroke-width="1.8"/>
  <path d="M27 40 Q32 43 37 40" fill="none"/>
  <circle cx="22" cy="38" r="1.6" fill="#caa84c"/>
</g></svg>
