<svg xmlns="http://www.w3.org/2000/svg" viewBox="0 0 64 64" width="64" height="64"><circle cx="32" cy="32" r="29" fill="#8c96a5" stroke="#222222" stroke-width="4.0"/><g stroke="#222222" stroke-width="2.2" stroke-linejoin="round" stroke-linecap="round">
  <path d="M22 22 Q22 12 32 12 Q42 12 42 22 L42 34 Q42 40 32 40 Q22 40 22 34 Z" fill="#c5ccd6"/>
  <path d="M22 24 L17 28 L22 31 M42 24 L47 28 L42 31" fill="#c5ccd6"/>
  <path d="M25 27 L39 27" fill="none" stroke="#1c1f26" stroke-width="3.2"/>
  <path d="M32 29 L32 38" fill="none" stroke="#1c1f26" stroke-width="2.6"/>
  <path d="M28 12 L28 8 L36 8 L36 12" fill="#c5ccd6"/>
  <path d="M24 44 L40 44 L42 52 L22 52 Z" fill="#c5ccd6"/>
</g></svg>
