<svg xmlns="http://www.w3.org/2000/svg" viewBox="0 0 64 64" width="64" height="64"><circle cx="32" cy="32" r="29" fill="#3a201c" stroke="#222222" stroke-width="4.0"/><g stroke="#222222" stroke-width="2.2" stroke-linejoin="round" stroke-linecap="round" transform="translate(6.400 6.400) scale(0.8)"><path d="M22 24 Q14 16 10 8 Q18 14 24 22 Z" fill="#c0432f"/><path d="M42 24 Q50 16 54 8 Q46 14 40 22 Z" fill="#c0432f"/><path d="M22 24 Q15 17 11 10" stroke="#7d2418" stroke-width="1" fill="none"/><path d="M42 24 Q49 17 53 10" stroke="#7d2418" stroke-width="1" fill="none"/><path d="M20 26 Q32 16 44 26 Q47 34 44 40 L40 44 Q32 48 24 44 L20 40 Q17 34 20 26 Z" fill="#c0432f"/><path d="M26 42 Q32 40 38 42 Q40 48 36 52 Q32 54 28 52 Q24 48 26 42 Z" fill="#c0432f"/><ellipse cx="32" cy="50" rx="5" ry="3.2" fill="#7d2418"/><circle cx="30" cy="49" r="0.9" fill="#222222"/><circle cx="34" cy="49" r="0.9" fill="#222222"/><path d="M21 27 L24 28 M43 27 L40 28" stroke="#7d2418" stroke-width="1.4"/><ellipse cx="26" cy="32" rx="3.2" ry="3" fill="#ffd23a"/><ellipse cx="38" cy="32" rx="3.2" ry="3" fill="#ffd23a"/><path d="M26 29.5 L26 34.5 M38 29.5 L38 34.5" stroke="#222222" stroke-width="1.4"/><path d="M29 53 L30 56 L31 53 Z M33 53 L34 56 L35 53 Z" fill="#fff"/></g></svg>