<svg xmlns="http://www.w3.org/2000/svg" viewBox="0 0 64 64" width="64" height="64"><circle cx="32" cy="32" r="29" fill="#474054" stroke="#222222" stroke-width="4.0"/><g stroke="#222222" stroke-width="2.2" stroke-linejoin="round" stroke-linecap="round">
  <path d="M17 36 Q17 14 32 12 Q47 14 47 36 Q42 30 32 30 Q22 30 17 36 Z" fill="#2b2638"/>
  <path d="M24 30 Q32 24 40 30 Q40 40 32 42 Q24 40 24 30 Z" fill="#1c1825"/>
  <path d="M26 32 Q29 30 31 32 L29 33 Z" fill="#cfd2ff"/>
  <path d="M38 32 Q35 30 33 32 L35 33 Z" fill="#cfd2ff"/>
  <path d="M20 47 Q26 42 32 42 Q38 42 44 47" fill="none" stroke="#2b2638" stroke-width="3.2"/>
  <path d="M40 44 L46 38 M44.5 39.5 L47.5 42.5" fill="none" stroke="#9aa2b1" stroke-width="2"/>
</g></svg>
