<svg xmlns="http://www.w3.org/2000/svg" viewBox="0 0 64 64" width="64" height="64"><circle cx="32" cy="32" r="29" fill="#54772c" stroke="#222222" stroke-width="4.0"/><g stroke="#222222" stroke-width="2.2" stroke-linejoin="round" stroke-linecap="round">
  <path d="M18 33 L7 26 L18 40 Z" fill="#86c45a"/>
  <path d="M46 33 L57 26 L46 40 Z" fill="#86c45a"/>
  <ellipse cx="32" cy="36" rx="14" ry="15" fill="#86c45a"/>
  <path d="M22 24 L26 17 L30 23 L34 16 L38 23 L42 17 L44 25 Q32 20 22 24 Z" fill="#caa84c"/>
  <circle cx="26" cy="36" r="2.6" fill="#222222"/><circle cx="38" cy="36" r="2.6" fill="#222222"/>
  <path d="M25 45 Q32 49 39 45" fill="none"/>
  <path d="M28 45 L29 49 L31 45 Z" fill="#ffffff"/>
  <path d="M34 45 L35 49 L37 45 Z" fill="#ffffff"/>
  <path d="M22 31 L28 29" fill="none" stroke="#3c4f1e" stroke-width="2"/>
</g></svg>
