<svg xmlns="http://www.w3.org/2000/svg" viewBox="0 0 64 64" width="64" height="64"><circle cx="32" cy="32" r="29" fill="#b9bdc2" stroke="#222222" stroke-width="4.0"/><g stroke="#222222" stroke-width="2.2" stroke-linejoin="round" stroke-linecap="round">
  <path d="M19 24 C19 13 45 13 45 24 C45 33 43 37 41 41 L41 47 L23 47 L23 41 C21 37 19 33 19 24 Z" fill="#eef0f2"/>
  <ellipse cx="26" cy="30" rx="4.5" ry="5" fill="#222"/>
  <ellipse cx="38" cy="30" rx="4.5" ry="5" fill="#222"/>
  <path d="M30 38 L31 43 L33 38 Z" fill="#222"/>
  <path d="M24 48 L24 52 M28 48 L28 53 M32 48 L32 53 M36 48 L36 53 M40 48 L40 52" /></g></svg>