<svg xmlns="http://www.w3.org/2000/svg" viewBox="0 0 64 64" width="64" height="64"><circle cx="32" cy="32" r="29" fill="#6a5042" stroke="#222222" stroke-width="4.0"/><g stroke="#222222" stroke-width="2.2" stroke-linejoin="round" stroke-linecap="round">
  <path d="M22 18 Q32 12 42 18 L41 24 Q32 20 23 24 Z" fill="#2a2018"/>
  <path d="M21 26 Q21 18 32 18 Q43 18 43 26 L43 38 Q43 48 32 48 Q21 48 21 38 Z" fill="#e0b083"/>
  <circle cx="27" cy="31" r="1.9" fill="#222222"/><circle cx="37" cy="31" r="1.9" fill="#222222"/>
  <path d="M24 27 L30 27 M34 27 L40 27" fill="none" stroke="#2a2018" stroke-width="2.4"/>
  <path d="M27 42 L37 42" fill="none"/>
  <path d="M21 33 L17 35 M43 33 L47 35" fill="none" stroke="#e0b083" stroke-width="3"/>
  <path d="M30 36 L34 36" fill="none" stroke="#8c2f2f" stroke-width="2"/>
</g></svg>
