<svg xmlns="http://www.w3.org/2000/svg" viewBox="0 0 64 64" width="64" height="64"><circle cx="32" cy="32" r="29" fill="#aba19a" stroke="#222222" stroke-width="4.0"/><g stroke="#222222" stroke-width="2.2" stroke-linejoin="round" stroke-linecap="round">
  <path d="M21 22 Q32 12 43 22 Q46 32 42 42 Q37 50 32 50 Q27 50 22 42 Q18 32 21 22 Z" fill="#cfc4ba"/>
  <path d="M24 30 Q27 27 30 30 L27 33 Z" fill="#3a2f2a"/>
  <path d="M34 30 Q37 27 40 30 L37 33 Z" fill="#3a2f2a"/>
  <path d="M24 42 Q32 38 40 42 Q32 48 24 42 Z" fill="#5a1f1f"/>
  <path d="M27 41 L28 44 M31 40 L31.5 44.5 M35 40 L34.5 44 M38 41 L37 43.5" fill="none" stroke="#ffffff" stroke-width="1.6"/>
</g></svg>
