<svg xmlns="http://www.w3.org/2000/svg" viewBox="0 0 64 64" width="64" height="64">
  <g stroke="#222222" stroke-width="2.2" stroke-linejoin="round" stroke-linecap="round">
    <circle cx="32" cy="32" r="30" fill="#1a1a1a"/><circle cx="32" cy="32" r="27" fill="#553a22" stroke="#222222" stroke-width="1.8"/>
    <circle cx="19" cy="34" r="4" fill="#d8a070"/><circle cx="45" cy="34" r="4" fill="#d8a070"/><circle cx="19" cy="40" r="2" fill="none" stroke="#d4a13a" stroke-width="1.2"/><circle cx="45" cy="40" r="2" fill="none" stroke="#d4a13a" stroke-width="1.2"/>
    <rect x="20" y="22" width="24" height="26" rx="6" fill="#d8a070"/>
    <path d="M21 38 Q32 52 43 38 L42 56 Q32 60 22 56 Z" fill="#1a1614"/>
    <path d="M22 31 L30 33" stroke-width="1.2" fill="none"/><path d="M42 31 L34 33" stroke-width="1.2" fill="none"/><circle cx="26" cy="34" r="2" fill="#222222"/><circle cx="38" cy="34" r="2" fill="#222222"/>
    <path d="M29 43 Q32 45 35 43" fill="none"/>
    <path d="M22 16 Q32 10 42 16 L40 24 Q32 20 24 24 Z" fill="#1a1614"/>
    <circle cx="32" cy="40" r="2" fill="none" stroke="#d4a13a" stroke-width="1"/>
  </g>
</svg>
