<svg xmlns="http://www.w3.org/2000/svg" viewBox="0 0 64 64" width="64" height="64"><circle cx="32" cy="32" r="29" fill="#7d9b6a" stroke="#222222" stroke-width="4.0"/><g stroke="#222222" stroke-width="2.2" stroke-linejoin="round" stroke-linecap="round">
  <path d="M19 34 L11 27 L20 38 Z" fill="#e9d8c8"/><path d="M45 34 L53 27 L44 38 Z" fill="#e9d8c8"/>
  <ellipse cx="32" cy="36" rx="13" ry="15" fill="#e9d8c8"/>
  <circle cx="26" cy="35" r="2.2" fill="#222222"/><circle cx="38" cy="35" r="2.2" fill="#222222"/>
  <path d="M27 44 Q32 48 37 44" fill="none"/>
  <path d="M16 36 Q32 12 48 36 L48 30 Q32 18 16 30 Z" fill="#3f6b3a"/> <!-- hood -->
  <path d="M16 30 Q32 18 48 30 L46 40 Q32 30 18 40 Z" fill="#4e7d46" opacity="0.0"/>
  <path d="M18 32 Q32 20 46 32" fill="none" stroke-width="2"/></g></svg>